name rise30.6535peak61.5555fall82.9339.mot
datacolumns 19
datarows 11
range 11.85661800000000 11.87328600000000
endheader
time	ground_force1_vx	ground_force1_vy	ground_force1_vz	ground_force1_px	ground_force1_py	ground_force1_pz	ground_force2_vx	ground_force2_vy	ground_force2_vz	ground_force2_px	ground_force2_py	ground_force2_pz	ground_torque1_x	ground_torque1_y	ground_torque1_z	ground_torque2_x	ground_torque2_y	ground_torque2_z	
11.85661800000000	-31.15618300000000	819.41445199999998	50.09836400000000	0.17012500000000	0.00000000000000	0.07932400000000	-8.34862900000000	31.63384800000000	3.59100300000000	0.40165600000000	0.00000000000000	-0.10533800000000	0.00000000000000	22.61032700000000	0.00000000000000	0.00000000000000	1.17525600000000	0.00000000000000	
11.85828200000000	-31.77103200000000	818.32801600000005	49.99063800000000	0.16915500000000	0.00000000000000	0.07929900000000	-9.58340400000000	37.38402500000000	4.19883600000000	0.40362500000000	0.00000000000000	-0.10506200000000	0.00000000000000	22.51558100000000	0.00000000000000	0.00000000000000	1.42523700000000	0.00000000000000	
11.85994800000000	-32.39852300000000	817.12235999999996	49.86906800000000	0.16819000000000	0.00000000000000	0.07927300000000	-10.73074000000000	43.14021700000000	4.79103400000000	0.40546100000000	0.00000000000000	-0.10482700000000	0.00000000000000	22.41913700000000	0.00000000000000	0.00000000000000	1.68350500000000	0.00000000000000	
11.86161300000000	-33.03897600000000	815.79489500000000	49.73363000000000	0.16723000000000	0.00000000000000	0.07924900000000	-11.75748000000000	48.79561800000000	5.35366000000000	0.40717900000000	0.00000000000000	-0.10462900000000	0.00000000000000	22.32116300000000	0.00000000000000	0.00000000000000	1.94519000000000	0.00000000000000	
11.86328800000000	-33.69266600000000	814.34305300000005	49.58431400000000	0.16627400000000	0.00000000000000	0.07922400000000	-12.63846800000000	54.26528500000000	5.87547200000000	0.40879300000000	0.00000000000000	-0.10446300000000	0.00000000000000	22.22181800000000	0.00000000000000	0.00000000000000	2.20590100000000	0.00000000000000	
11.86495100000000	-34.35981500000000	812.76429099999996	49.42112900000000	0.16532300000000	0.00000000000000	0.07920000000000	-13.35747300000000	59.49010200000000	6.34838500000000	0.41031500000000	0.00000000000000	-0.10432700000000	0.00000000000000	22.12126000000000	0.00000000000000	0.00000000000000	2.46194600000000	0.00000000000000	
11.86661700000000	-35.04059500000000	811.05609800000002	49.24409800000000	0.16437700000000	0.00000000000000	0.07917600000000	-13.90723400000000	64.43801400000000	6.76759600000000	0.41175400000000	0.00000000000000	-0.10421800000000	0.00000000000000	22.01964300000000	0.00000000000000	0.00000000000000	2.71046600000000	0.00000000000000	
11.86828700000000	-35.73512400000000	809.21599700000002	49.05326200000000	0.16343600000000	0.00000000000000	0.07915200000000	-14.28876800000000	69.10283400000000	7.13141800000000	0.41311900000000	0.00000000000000	-0.10413400000000	0.00000000000000	21.91711300000000	0.00000000000000	0.00000000000000	2.94946900000000	0.00000000000000	
11.86995300000000	-36.44346000000000	807.24155299999995	48.84867600000000	0.16249900000000	0.00000000000000	0.07912900000000	-14.51012200000000	73.50112300000001	7.44089100000000	0.41441500000000	0.00000000000000	-0.10407100000000	0.00000000000000	21.81381000000000	0.00000000000000	0.00000000000000	3.17779400000000	0.00000000000000	
11.87161600000000	-37.16560200000000	805.13037799999995	48.63041000000000	0.16156700000000	0.00000000000000	0.07910600000000	-14.58475600000000	77.66773100000000	7.69923200000000	0.41565000000000	0.00000000000000	-0.10403000000000	0.00000000000000	21.70986700000000	0.00000000000000	0.00000000000000	3.39500500000000	0.00000000000000	
11.87328600000000	-37.90148300000000	802.88013699999999	48.39854700000000	0.16063900000000	0.00000000000000	0.07908300000000	-14.52976000000000	81.65061400000000	7.91120200000000	0.41682700000000	0.00000000000000	-0.10400600000000	0.00000000000000	21.60541000000000	0.00000000000000	0.00000000000000	3.60125000000000	0.00000000000000	
